<svg width="4096" height="4096" viewBox="0 0 4096 4096" fill="none" xmlns="http://www.w3.org/2000/svg">
<path d="M1313.28 2099.2L988.159 2007.04L1059.84 2193.92L1909.76 3353.6V3018.24L1461.76 2634.24L1313.28 2099.2Z" fill="#4F4F04"/>
<path d="M2777.6 2099.2L3107.84 2007.04L3036.16 2193.92L2186.24 3353.6V3018.24L2629.12 2634.24L2777.6 2099.2Z" fill="#4F4F04"/>
<path d="M1277.44 1569.28L2048 1835.52L2813.44 1569.28L3307.52 1674.24L2600.96 2048L2073.6 2193.92H2048H2022.4L1495.04 2048L788.479 1674.24L1277.44 1569.28Z" fill="#FFFF78"/>
<path d="M1571.84 793.6L2048 650.24L2524.16 793.6L2670.08 1479.68L2048 1717.76L1420.8 1479.68L1571.84 793.6Z" fill="#FFFF78"/>
<path d="M2048 2416.64L2598.4 2293.76L2508.8 2654.72L2048 3018.24L1587.2 2654.72L1492.48 2293.76L2048 2416.64Z" fill="#FFFF78"/>
<path d="M727.041 1991.68L931.841 1856L1059.84 2193.92L1976.32 3445.76L860.161 2700.8L1221.12 2565.12L727.041 1991.68Z" fill="#FFFF78"/>
<path d="M3368.96 1991.68L3164.16 1856L3036.16 2193.92L2119.68 3445.76L3235.84 2700.8L2869.76 2565.12L3368.96 1991.68Z" fill="#FFFF78"/>
</svg>
